<svg xmlns="http://www.w3.org/2000/svg" version="1.1" xmlns:xlink="http://www.w3.org/1999/xlink" xmlns:svgjs="http://svgjs.com/svgjs" width="512" height="512" x="0" y="0" viewBox="0 0 485 485" style="enable-background:new 0 0 512 512" xml:space="preserve"><g><path d="M343.611 22.543c-22.613 0-44.227 5.184-64.238 15.409-13.622 6.959-26.136 16.205-36.873 27.175-10.738-10.97-23.251-20.216-36.873-27.175-20.012-10.225-41.625-15.409-64.239-15.409C63.427 22.543 0 85.97 0 163.932c0 55.219 29.163 113.866 86.678 174.314 48.022 50.471 106.816 92.543 147.681 118.95l8.141 5.261 8.141-5.261c40.865-26.406 99.659-68.479 147.682-118.95C455.838 277.798 485 219.151 485 163.932c0-77.962-63.427-141.389-141.389-141.389zm32.978 295.023c-42.918 45.106-95.196 83.452-134.089 109.116-38.893-25.665-91.171-64.01-134.088-109.116C56.381 262.884 30 211.194 30 163.932c0-61.42 49.969-111.389 111.389-111.389 35.361 0 67.844 16.243 89.118 44.563l11.993 15.965 11.993-15.965c21.274-28.32 53.757-44.563 89.118-44.563 61.42 0 111.389 49.969 111.389 111.389 0 47.262-26.382 98.952-78.411 153.634z" fill="#818181" data-original="#000000"></path></g></svg>