<svg xmlns="http://www.w3.org/2000/svg" version="1.1" xmlns:xlink="http://www.w3.org/1999/xlink" xmlns:svgjs="http://svgjs.com/svgjs" width="512" height="512" x="0" y="0" viewBox="0 0 24 24" style="enable-background:new 0 0 512 512" xml:space="preserve" class=""><g><path d="M4 16v2a4 4 0 0 0 4 4h10c2.21 0 4-1.79 4-4V6a4 4 0 0 0-4-4H8a4 4 0 0 0-4 4v2a1 1 0 0 0 2 0V6a2 2 0 0 1 2-2h10a2 2 0 0 1 2 2v12a2 2 0 0 1-2 2H8a2 2 0 0 1-2-2v-2a1.001 1.001 0 0 0-2 0zm7.586-5-1.293-1.292a1 1 0 0 1 1.414-1.415l3 3a1 1 0 0 1 0 1.415l-3 3a1 1 0 0 1-1.414-1.415L11.586 13H3a1 1 0 0 1 0-2z" fill="#818181" data-original="#000000"></path></g></svg>